<svg xmlns:dc="http://purl.org/dc/elements/1.1/" xmlns:cc="http://creativecommons.org/ns#" xmlns:rdf="http://www.w3.org/1999/02/22-rdf-syntax-ns#" xmlns:svg="http://www.w3.org/2000/svg" xmlns="http://www.w3.org/2000/svg" xmlns:xlink="http://www.w3.org/1999/xlink" id="svg215292" viewBox="0 0 1024 768" height="768" width="1024" version="1.1">
  <g id="logo-group" fill="#220B68">
    <g id="logo-center" transform="translate(0 0)" fill="#FAFAFA" stroke="#220B68">
      <g id="title" style="font-style:normal;font-weight:700;font-size:72px;line-height:1;font-family:'Brandmark1 Bold';font-variant-ligatures:normal;text-align:center;text-anchor:middle" transform="translate(0 0)" fill="#220B68">
        <!-- <rect width="100%" height="100%" fill="#220B68" /> -->
        <path id="path215301" style="font-style:normal;font-weight:700;font-size:72px;line-height:1;font-family:'Brandmark1 Bold';font-variant-ligatures:normal;text-align:center;text-anchor:middle" d="m 387.42537,2.52 h 36.36 V -8.208 h -25.056 v -11.88 h 25.056 v -10.728 h -25.056 v -12.096 h 25.056 V -53.64 h -36.36 z" stroke-width="0px" stroke-linejoin="miter" stroke-miterlimit="2" fill="#FFFFFF" stroke="#FFFFFF" transform="translate(0 341.73856) translate(90.85218604999989 -74.98120000000002) scale(3.33) translate(-387.42537 53.64)"></path>
        <path id="path215303" style="font-style:normal;font-weight:700;font-size:72px;line-height:1;font-family:'Brandmark1 Bold';font-variant-ligatures:normal;text-align:center;text-anchor:middle" d="m 452.85537,2.52 h 12.816 l -14.61599,-20.16 14.47199,-19.944 h -13.03199 l -7.99201,11.16 -7.848,-11.16 h -13.248 l 14.616,19.872 -14.544,20.232 h 12.744 l 8.352,-11.088 z" stroke-width="0px" stroke-linejoin="miter" stroke-miterlimit="2" fill="#FFFFFF" stroke="#FFFFFF" transform="translate(0 341.73856) translate(210.67224604999993 -21.51472000000001) scale(3.33) translate(-423.40737 37.584)"></path>
        <path id="path215305" style="font-style:normal;font-weight:700;font-size:72px;line-height:1;font-family:'Brandmark1 Bold';font-variant-ligatures:normal;text-align:center;text-anchor:middle" d="m 461.3165,-17.424 c 0,2.736 0.576,5.4 1.584,7.992 1.08,2.448 2.52,4.608 4.392,6.48 1.944,1.872 4.104,3.384 6.552,4.392 2.52,1.08 5.256,1.656 7.992,1.656 2.736,0 5.472,-0.576 7.992,-1.656 0.576,-0.216 1.152,-0.504 1.728,-0.792 v 16.128 l 10.8,-3.6 v -30.6 c 0,-2.808 -0.504,-5.472 -1.584,-7.992 -1.08,-2.448 -2.52,-4.68 -4.392,-6.552 -1.872,-1.872 -4.104,-3.384 -6.552,-4.392 -2.52,-1.08 -5.184,-1.584 -7.992,-1.584 -2.736,0 -5.472,0.504 -7.992,1.584 -2.448,1.008 -4.608,2.52 -6.552,4.392 -1.872,1.872 -3.312,4.104 -4.392,6.552 -1.008,2.52 -1.584,5.184 -1.584,7.992 z m 10.8,0 c 0,-5.4 4.392,-9.72 9.72,-9.72 5.328,0 9.72,4.32 9.72,9.72 0,5.328 -4.392,9.72 -9.72,9.72 -5.328,0 -9.72,-4.392 -9.72,-9.72 z" stroke-width="0px" stroke-linejoin="miter" stroke-miterlimit="2" fill="#FFFFFF" stroke="#FFFFFF" transform="translate(0 341.73856) translate(336.90964894999996 -22.713520000000017) scale(3.33) translate(-461.3165 37.944)"></path>
        <path id="path215307" style="font-style:normal;font-weight:700;font-size:72px;line-height:1;font-family:'Brandmark1 Bold';font-variant-ligatures:normal;text-align:center;text-anchor:middle" d="m 524.84412,3.024 c 4.82401,0 9.36,-1.872 12.744,-5.256 3.384,-3.384 5.256,-7.92 5.256,-12.744 v -22.608 h -10.8 v 22.608 c 0,3.96 -3.24,7.2 -7.2,7.2 -3.95999,0 -7.19999,-3.24 -7.19999,-7.2 v -22.608 h -10.8 v 22.608 c 0,4.824 1.87199,9.36 5.256,12.744 3.38399,3.384 7.91999,5.256 12.74399,5.256 z" stroke-width="0px" stroke-linejoin="miter" stroke-miterlimit="2" fill="#FFFFFF" stroke="#FFFFFF" transform="translate(0 341.73856) translate(488.5166568499999 -21.51472000000001) scale(3.33) translate(-506.84413 37.584)"></path>
        <path id="path215309" style="font-style:normal;font-weight:700;font-size:72px;line-height:1;font-family:'Brandmark1 Bold';font-variant-ligatures:normal;text-align:center;text-anchor:middle" d="m 548.71213,2.52 h 10.87199 v -41.544 l -10.87199,3.6 z" stroke-width="0px" stroke-linejoin="miter" stroke-miterlimit="2" fill="#FFFFFF" stroke="#FFFFFF" transform="translate(0 341.73856) translate(627.93709685 -26.30991999999999) scale(3.33) translate(-548.71213 39.024)"></path>
        <path id="path215311" style="font-style:normal;font-weight:700;font-size:72px;line-height:1;font-family:'Brandmark1 Bold';font-variant-ligatures:normal;text-align:center;text-anchor:middle" d="m 562.97825,2.52 h 33.408 V -7.56 h -17.856 l 17.856,-22.392 v -7.632 h -32.328 v 10.08 h 16.704 l -17.784,22.392 z" stroke-width="0px" stroke-linejoin="miter" stroke-miterlimit="2" fill="#FFFFFF" stroke="#FFFFFF" transform="translate(0 341.73856) translate(675.4432764500001 -21.51472000000001) scale(3.33) translate(-562.97825 37.584)"></path>
        <path id="path215313" style="font-style:normal;font-weight:700;font-size:72px;line-height:1;font-family:'Brandmark1 Bold';font-variant-ligatures:normal;text-align:center;text-anchor:middle" d="m 600.18088,2.52 h 10.87199 v -41.544 l -10.87199,3.6 z" stroke-width="0px" stroke-linejoin="miter" stroke-miterlimit="2" fill="#FFFFFF" stroke="#FFFFFF" transform="translate(0 341.73856) translate(799.32803435 -26.30991999999999) scale(3.33) translate(-600.18088 39.024)"></path>
        <path id="path215315" style="font-style:normal;font-weight:700;font-size:72px;line-height:1;font-family:'Brandmark1 Bold';font-variant-ligatures:normal;text-align:center;text-anchor:middle" d="m 640.367,-27.504 v -10.08 h -11.448 v -12.888 l -10.8,3.6 v 27.936 c 0,3.024 0.576,5.904 1.728,8.64 1.08,2.664 2.736,5.04 4.752,7.056 2.016,2.088 4.392,3.672 7.056,4.824 2.736,1.152 5.688,1.728 8.712,1.728 v -10.8 c -6.336,0 -11.448,-5.112 -11.448,-11.448 v -8.568 z" stroke-width="0px" stroke-linejoin="miter" stroke-miterlimit="2" fill="#FFFFFF" stroke="#FFFFFF" transform="translate(0 341.73856) translate(859.0619739500003 -64.43176000000001) scale(3.33) translate(-618.119 50.472)"></path>
      </g>
    </g>
  </g>
</svg>